<svg width="192" height="192" fill="none" xmlns="http://www.w3.org/2000/svg"><path fill="#E84D37" d="M0 0h192v192H0z"/><path d="M96.15 30.26a29.24 29.24 0 0125.34 14.62 29.38 29.38 0 01.08 29.3 9.61 9.61 0 018 11.75 9.63 9.63 0 01-16.74 3.96 9.66 9.66 0 01-2.14-4.81l-1.1.6a13.64 13.64 0 01-13.44 11.45 13.6 13.6 0 01-13.43-11.45l-1.1-.6a9.65 9.65 0 01-11.75 8.02 9.61 9.61 0 01-6.9-12.45 9.64 9.64 0 017.8-6.47 29.38 29.38 0 0110.77-40 29.24 29.24 0 0114.61-3.92zm0-7.26a36.46 36.46 0 00-29.5 15 36.63 36.63 0 00-5.3 32.72 16.88 16.88 0 007.48 29.79c4.27.77 8.67-.13 12.29-2.53a20.94 20.94 0 0030.15 0 16.8 16.8 0 0022.53-4.43 16.9 16.9 0 00-2.84-22.83 36.66 36.66 0 00-18.26-43.76A36.47 36.47 0 0096.15 23z" fill="#fff"/><path d="M120.2 104.76c-2.85 0-5.67-.6-8.28-1.74-.38.3-.79.59-1.19.88l.55.54-4.04 4.04-1.73-1.73c-.71.28-1.44.53-2.18.75l2.44 2.45-4.03 4.04-4.06-4.04 1.6-1.61a24.1 24.1 0 01-6.12.01l1.6 1.6-4.03 4.04-4.04-4.04 2.42-2.43c-.74-.21-1.46-.46-2.17-.75l-1.74 1.71-4.08-4.04.5-.51-1.24-.91a20.78 20.78 0 01-8.28 1.74h-.62c-.08.56-.02 1.14.16 1.68l21.1 59.26.09.2a5.49 5.49 0 00.34.62l.1.14c.12.17.26.33.42.48l.1.08.4.31.2.1c.13.09.28.16.44.21h.11l.41.1h.17c.38.08.78.08 1.16 0h.18l.4-.1h.18l.43-.2.19-.12c.14-.08.28-.18.4-.3l.11-.08c.16-.15.3-.31.43-.48l.08-.13c.1-.13.18-.27.25-.42l.19-.41 21.14-59.3c.2-.53.25-1.1.17-1.67-.21 0-.37.03-.63.03zm-14.5 16.21l-4.03 4.05-3.99-4.05 4.03-4.04 4 4.04zm-13.55 5.51l4.04-4.04 4.04 4.04-4.04 4.05-4.04-4.05zm8.08 11.03l-4.04 4.05-4.04-4.05 4.04-4.05 4.04 4.05zm-4.04-26.1l4.04 4.06-4.04 4.01-4.04-4.05 4.04-4.01zm-1.46 9.56l-4.04 4.05-4.03-4.05 4.03-4.04 4.04 4.04zM79.3 106.31l.4-.4 4.04 4.04-2.31 2.27-2.13-5.91zm2.86 8.12l3-3.01 4.03 4.05-3.98 4.01-1.86-1.86-1.19-3.2zm2.93 8.16l.12-.11 4.02 4.04-2.01 2.08-2.13-6zm4.32 12.2l-1.47-4.16 2.72-2.72 4.04 4.05-4 4.12-1.29-1.3zm3.55 9.97l-1.93-5.41 3.67 3.67-1.74 1.74zm3.16 8.88l-2.4-6.72 2.44-2.44 2.37 2.38-2.41 6.78zm3.19-8.94l-1.62-1.68 3.53-3.55-1.91 5.23zm3.56-9.78l-1.17 1.16-4-4.09 4.02-4.03 2.66 2.65-1.5 4.3zm2.3-6.47l-1.96-1.97 4.04-4.04v.05l-2.08 5.96zm3.8-10.67l-1.76 1.7-4.04-4.05 4.04-4.04 2.9 2.97-1.14 3.42zm1.95-5.56l-2.25-2.26 4.04-4.05.33.33-2.12 5.98z" fill="#fff"/></svg>