<svg width="512" height="512" fill="none" xmlns="http://www.w3.org/2000/svg"><path fill="#E84D37" d="M0 0h512v512H0z"/><path d="M256.4 81.28c13.77 0 27.3 3.58 39.23 10.4a78.23 78.23 0 0128.75 28.42 77.39 77.39 0 01.23 77.78c4.74.67 9.2 2.64 12.88 5.69a25.4 25.4 0 011.71 37.74 26.02 26.02 0 01-38.06-1.7 25.48 25.48 0 01-5.73-12.78c-.97.55-1.97 1.07-2.97 1.6a36.12 36.12 0 01-12.38 21.76 36.7 36.7 0 01-47.3 0 36.12 36.12 0 01-12.38-21.76c-1-.53-2-1.05-2.98-1.6a25.48 25.48 0 01-5.73 12.8 26.02 26.02 0 01-38.09 1.67 25.38 25.38 0 01-6.19-26.22c1.53-4.51 4.3-8.51 7.99-11.55 3.69-3.04 8.16-5 12.91-5.65a77.39 77.39 0 01.2-77.75 78.24 78.24 0 0128.72-28.42 79.07 79.07 0 0139.2-10.43zm0-19.28a98.66 98.66 0 00-44.38 10.51 97.76 97.76 0 00-34.78 29.32 96.39 96.39 0 00-14.23 86.88 44.5 44.5 0 00-8.38 61.35 45.22 45.22 0 0028.49 17.74 45.48 45.48 0 0032.95-6.7 56.17 56.17 0 0018.47 12.6 56.59 56.59 0 0062.42-12.6 45.5 45.5 0 0032.57 5.92 45.21 45.21 0 0027.9-17.7 44.5 44.5 0 00-7.63-60.61 96.36 96.36 0 003.38-45.13 96.71 96.71 0 00-17.6-41.75A97.76 97.76 0 00300.8 72.5 98.66 98.66 0 00256.4 62z" fill="#fff"/><path d="M320.94 279.08a56.26 56.26 0 01-22.23-4.62c-1.02.82-2.1 1.57-3.19 2.34l1.47 1.43-10.83 10.74-4.64-4.6c-1.92.75-3.86 1.4-5.86 1.99l6.55 6.5-10.8 10.74-10.9-10.74 4.31-4.27c-2.76.35-5.54.53-8.33.55-2.7 0-5.4-.18-8.08-.52l4.27 4.24-10.83 10.74-10.83-10.74 6.5-6.45a60.67 60.67 0 01-5.84-1.98l-4.66 4.54-10.95-10.74 1.36-1.35c-1.14-.8-2.25-1.57-3.33-2.42a56.26 56.26 0 01-22.22 4.62h-1.67a9.48 9.48 0 00.44 4.47l56.62 157.33c.06.2.13.38.22.56.07.19.17.37.28.55.2.38.41.74.64 1.1l.25.36c.34.45.72.88 1.13 1.26l.28.22 1.09.83.5.28c.38.2.78.4 1.2.55h.3l1.1.27h.45c1.03.19 2.09.19 3.11 0h.48l1.08-.27h.47c.4-.16.8-.35 1.17-.55l.5-.3c.39-.23.75-.5 1.08-.8l.3-.23c.42-.4.8-.82 1.15-1.26l.22-.36c.25-.35.47-.72.67-1.1l.5-1.1 56.72-157.43c.52-1.42.67-2.96.45-4.46-.56 0-.98.08-1.67.08zm-38.9 43.06l-10.83 10.74-10.7-10.74 10.81-10.75 10.73 10.75zm-36.36 14.62l10.84-10.74 10.83 10.74-10.83 10.75-10.84-10.75zm21.67 29.28l-10.83 10.75-10.84-10.75 10.84-10.74 10.83 10.74zm-10.83-69.27l10.83 10.74-10.83 10.66-10.84-10.74 10.84-10.66zm-3.92 25.37l-10.83 10.74-10.84-10.74 10.84-10.75 10.83 10.75zm-41.42-38.95l1.06-1.05 10.83 10.72-6.2 6.03-5.69-15.7zm7.67 21.57l8.06-8 10.8 10.75-10.7 10.66-4.97-4.93-3.2-8.48zm7.86 21.67l.3-.3 10.81 10.74-5.41 5.51-5.7-15.95zm11.58 32.37l-3.94-11.02 7.3-7.21 10.84 10.74-10.72 10.93-3.48-3.44zm9.53 26.5l-5.2-14.38 9.87 9.75-4.67 4.63zm8.48 23.58l-6.42-17.85 6.53-6.47 6.36 6.3-6.47 18.02zm8.55-23.75l-4.33-4.46 9.47-9.42-5.14 13.88zm9.56-25.97l-3.14 3.08-10.75-10.85 10.8-10.71 7.14 7.05-4.05 11.43zm6.16-17.16l-5.25-5.24 10.84-10.74v.14L280.57 342zm10.2-28.35l-4.72 4.52-10.84-10.74 10.84-10.74 7.8 7.9-3.08 9.06zm5.22-14.76l-6.03-6 10.84-10.75.89.88-5.7 15.87z" fill="#fff"/></svg>